<?xml version="1.0" encoding="utf-8"?>
<svg xmlns="http://www.w3.org/2000/svg" height="456" width="456" viewBox="0 0 456 456">
  <g>
    <rect height="456" width="456" fill="#FFF7F7" />
    <path id="path1" transform="rotate(0,228,228) translate(120,131.663948656101) scale(6.74999758601275,6.74999758601275)  " fill="#4C25D2" d="M14.098166,17.345885C14.098166,17.345885,15.594171,20.236866,17.986179,17.545883z M19.083182,11.563923C18.48518,11.563923 17.887178,12.06292 17.887178,12.759915 17.887178,13.358912 18.38518,13.956907 19.083182,13.956907 19.681184,13.956907 20.279186,13.457911 20.279186,12.759915 20.279186,12.06292 19.781185,11.563923 19.083182,11.563923z M13.002162,11.065927C12.30416,11.065927 11.706158,11.663923 11.706158,12.361918 11.706158,13.059914 12.30416,13.657909 13.002162,13.657909 13.700164,13.657909 14.298166,13.059914 14.298166,12.361918 14.298166,11.663923 13.700164,11.065927 13.002162,11.065927z M15.993172,1.3959908C14.796168,1.3959908 9.7121506,1.7939882 8.9151478,7.57695 8.9151478,7.5769498 9.2141495,7.8759478 9.4131498,7.4769505 9.4131498,7.4769505 11.507157,2.7909818 16.192173,1.8939877 16.192173,1.8939877 16.391173,1.4949903 16.192173,1.3959908z M16.192173,0C19.681184,0,22.772194,1.6949887,24.167199,4.2869716L24.2672,4.5859699C24.865201,5.7819617,26.261206,9.2709386,23.071196,13.856908L22.772194,14.155906 22.772194,14.255906C22.273193,15.950894 22.173193,18.242879 25.164203,19.239872 25.164203,19.239872 27.756211,19.738869 28.952215,17.246885 28.952215,17.246885 30.049219,15.252899 28.055212,13.457911 28.055212,13.457911 26.460207,11.862921 28.853215,11.463924 28.853215,11.463924 31.345223,12.361918 31.943225,15.351898 31.943225,15.351898 32.741228,19.937868 28.354213,22.031854 28.354213,22.031854 26.061205,23.227846 23.071196,22.529851 23.071196,22.529851 25.762205,26.517824 28.653214,25.819828 28.653214,25.819828 30.14922,25.420832 30.248219,26.816822 30.248219,26.816822 30.049219,29.109806 25.862205,28.411812 25.862205,28.411812 21.47619,27.21582 18.186179,22.928848 18.186179,22.928848 17.089175,21.632856 15.59417,21.732856L15.49417,21.732856 15.39417,21.732856C14.497167,22.031854 13.799165,22.828848 13.799165,22.828848 10.510154,27.21582 6.1231394,28.311811 6.1231394,28.311811 1.9361248,29.009808 1.7371235,26.716824 1.7371235,26.716824 1.8361244,25.321833 3.3321295,25.71983 3.3321295,25.71983 6.2231388,26.417824 8.9151478,22.430851 8.9151478,22.430851 6.023139,23.028847 3.6311302,21.931854 3.6311302,21.931854 -0.65588379,19.937868 0.042118073,15.351898 0.042118073,15.351898 0.64012146,12.261919 3.1321287,11.463924 3.1321287,11.463924 5.4251366,11.763922 3.8301315,13.457911 3.8301315,13.457911 1.8361244,15.1529 2.9331284,17.246885 2.9331284,17.246885 4.1291323,19.738869 6.7211409,19.239872 6.7211409,19.239872 10.011152,18.14388 9.6121502,15.451898 8.9151478,13.756909L8.8151484,13.55791 8.8151484,13.457911C8.6151476,13.158913,8.4161463,12.660916,8.2171459,12.261919L8.2171459,12.16192 8.2171459,12.06292C7.4191437,10.168933,6.7211409,7.5769498,7.8181448,5.0839664L7.8181448,4.9849669 7.8181448,4.8849679C9.1141491,2.093986,12.40416,0,16.192173,0z" />
  </g>
</svg>

